<svg width="236" height="60" fill="none" xmlns="http://www.w3.org/2000/svg"><g opacity=".3"><path d="M211.158 60L236 0h-12.421l-24.842 60h12.421z" fill="url(#paint0_linear)"/><path d="M186.316 60l24.842-60h-12.421l-24.842 60h12.421z" fill="url(#paint1_linear)"/><path d="M161.474 60l24.842-60h-12.421l-24.842 60h12.421z" fill="url(#paint2_linear)"/><path d="M136.632 60l24.842-60h-12.421l-24.842 60h12.421z" fill="url(#paint3_linear)"/><path d="M111.789 60l24.843-60h-12.421L99.368 60h12.421z" fill="url(#paint4_linear)"/><path d="M86.947 60L111.79 0H99.37L74.525 60h12.421z" fill="url(#paint5_linear)"/><path d="M62.105 60L86.947 0h-12.42L49.683 60h12.421z" fill="url(#paint6_linear)"/><path d="M37.263 60L62.105 0h-12.42L24.841 60h12.421z" fill="url(#paint7_linear)"/><path d="M12.421 60L37.263 0h-12.42L0 60h12.421z" fill="url(#paint8_linear)"/></g><defs><linearGradient id="paint0_linear" x1="236" y1="30" x2="0" y2="30" gradientUnits="userSpaceOnUse"><stop stop-color="#FFBC09"/><stop offset="1" stop-color="#FFBC09" stop-opacity="0"/></linearGradient><linearGradient id="paint1_linear" x1="236" y1="30" x2="0" y2="30" gradientUnits="userSpaceOnUse"><stop stop-color="#FFBC09"/><stop offset="1" stop-color="#FFBC09" stop-opacity="0"/></linearGradient><linearGradient id="paint2_linear" x1="236" y1="30" x2="0" y2="30" gradientUnits="userSpaceOnUse"><stop stop-color="#FFBC09"/><stop offset="1" stop-color="#FFBC09" stop-opacity="0"/></linearGradient><linearGradient id="paint3_linear" x1="236" y1="30" x2="0" y2="30" gradientUnits="userSpaceOnUse"><stop stop-color="#FFBC09"/><stop offset="1" stop-color="#FFBC09" stop-opacity="0"/></linearGradient><linearGradient id="paint4_linear" x1="236" y1="30" x2="0" y2="30" gradientUnits="userSpaceOnUse"><stop stop-color="#FFBC09"/><stop offset="1" stop-color="#FFBC09" stop-opacity="0"/></linearGradient><linearGradient id="paint5_linear" x1="236" y1="30" x2="0" y2="30" gradientUnits="userSpaceOnUse"><stop stop-color="#FFBC09"/><stop offset="1" stop-color="#FFBC09" stop-opacity="0"/></linearGradient><linearGradient id="paint6_linear" x1="236" y1="30" x2="0" y2="30" gradientUnits="userSpaceOnUse"><stop stop-color="#FFBC09"/><stop offset="1" stop-color="#FFBC09" stop-opacity="0"/></linearGradient><linearGradient id="paint7_linear" x1="236" y1="30" x2="0" y2="30" gradientUnits="userSpaceOnUse"><stop stop-color="#FFBC09"/><stop offset="1" stop-color="#FFBC09" stop-opacity="0"/></linearGradient><linearGradient id="paint8_linear" x1="236" y1="30" x2="0" y2="30" gradientUnits="userSpaceOnUse"><stop stop-color="#FFBC09"/><stop offset="1" stop-color="#FFBC09" stop-opacity="0"/></linearGradient></defs></svg>