<svg width="60" height="103" fill="none" xmlns="http://www.w3.org/2000/svg"><g opacity=".3"><path d="M0-24.579L60-45v10.21L0-14.367v-10.21z" fill="url(#paint0_radial)"/><path d="M0-4.158l60-20.42v10.21L0 6.052v-10.21z" fill="url(#paint1_radial)"/><path d="M0 16.263l60-20.42v10.21L0 26.473v-10.21z" fill="url(#paint2_radial)"/><path d="M0 36.684l60-20.42v10.21L0 46.894v-10.21z" fill="url(#paint3_radial)"/><path d="M0 57.105l60-20.42v10.21L0 67.315v-10.21z" fill="url(#paint4_radial)"/><path d="M0 77.526l60-20.42v10.21L0 87.736v-10.21z" fill="url(#paint5_radial)"/><path d="M0 97.947l60-20.42v10.21L0 108.158v-10.21z" fill="url(#paint6_radial)"/><path d="M0 118.368l60-20.42v10.21L0 128.579v-10.211z" fill="url(#paint7_radial)"/><path d="M0 138.789l60-20.421v10.211L0 149v-10.211z" fill="url(#paint8_radial)"/></g><defs><radialGradient id="paint0_radial" cx="0" cy="0" r="1" gradientUnits="userSpaceOnUse" gradientTransform="matrix(-60 0 0 -101.19 60 41.79)"><stop stop-color="#FFBC09"/><stop offset="1" stop-color="#FFBC09" stop-opacity="0"/></radialGradient><radialGradient id="paint1_radial" cx="0" cy="0" r="1" gradientUnits="userSpaceOnUse" gradientTransform="matrix(-60 0 0 -101.19 60 41.79)"><stop stop-color="#FFBC09"/><stop offset="1" stop-color="#FFBC09" stop-opacity="0"/></radialGradient><radialGradient id="paint2_radial" cx="0" cy="0" r="1" gradientUnits="userSpaceOnUse" gradientTransform="matrix(-60 0 0 -101.19 60 41.79)"><stop stop-color="#FFBC09"/><stop offset="1" stop-color="#FFBC09" stop-opacity="0"/></radialGradient><radialGradient id="paint3_radial" cx="0" cy="0" r="1" gradientUnits="userSpaceOnUse" gradientTransform="matrix(-60 0 0 -101.19 60 41.79)"><stop stop-color="#FFBC09"/><stop offset="1" stop-color="#FFBC09" stop-opacity="0"/></radialGradient><radialGradient id="paint4_radial" cx="0" cy="0" r="1" gradientUnits="userSpaceOnUse" gradientTransform="matrix(-60 0 0 -101.19 60 41.79)"><stop stop-color="#FFBC09"/><stop offset="1" stop-color="#FFBC09" stop-opacity="0"/></radialGradient><radialGradient id="paint5_radial" cx="0" cy="0" r="1" gradientUnits="userSpaceOnUse" gradientTransform="matrix(-60 0 0 -101.19 60 41.79)"><stop stop-color="#FFBC09"/><stop offset="1" stop-color="#FFBC09" stop-opacity="0"/></radialGradient><radialGradient id="paint6_radial" cx="0" cy="0" r="1" gradientUnits="userSpaceOnUse" gradientTransform="matrix(-60 0 0 -101.19 60 41.79)"><stop stop-color="#FFBC09"/><stop offset="1" stop-color="#FFBC09" stop-opacity="0"/></radialGradient><radialGradient id="paint7_radial" cx="0" cy="0" r="1" gradientUnits="userSpaceOnUse" gradientTransform="matrix(-60 0 0 -101.19 60 41.79)"><stop stop-color="#FFBC09"/><stop offset="1" stop-color="#FFBC09" stop-opacity="0"/></radialGradient><radialGradient id="paint8_radial" cx="0" cy="0" r="1" gradientUnits="userSpaceOnUse" gradientTransform="matrix(-60 0 0 -101.19 60 41.79)"><stop stop-color="#FFBC09"/><stop offset="1" stop-color="#FFBC09" stop-opacity="0"/></radialGradient></defs></svg>