<svg width="26" height="26" fill="none" xmlns="http://www.w3.org/2000/svg"><path fill-rule="evenodd" clip-rule="evenodd" d="M11.813 14.25c.38.37.799.681 1.242.936 2.418 1.39 5.59 1.077 7.67-.936a5.962 5.962 0 000-8.626c-2.462-2.382-6.451-2.382-8.912 0-2.066 2-2.398 5.041-.996 7.375.268.447.6.868.996 1.251zM9.62 16.372c.376.364.777.69 1.196.98 3.671 2.536 8.804 2.209 12.099-.98 3.671-3.554 3.671-9.315 0-12.869-3.671-3.553-9.624-3.553-13.295 0-3.281 3.176-3.63 8.115-1.046 11.666.307.422.656.825 1.046 1.203z" fill="#fff"/><path d="M10.817 17.352a9.407 9.407 0 01-2.242-2.183l-8.493 8.22 2.249 2.177 8.486-8.214z" fill="#fff"/></svg>