<svg width="14" height="18" fill="none" xmlns="http://www.w3.org/2000/svg"><path d="M4.213 3.701C3.687 4.453 3.5 5.392 3.5 6H1.167c0-.992.28-2.453 1.153-3.701C3.236.989 4.753 0 7 0s3.764.99 4.68 2.299c.874 1.248 1.153 2.709 1.153 3.701H10.5c0-.608-.187-1.547-.713-2.299C9.303 3.011 8.487 2.4 7 2.4c-1.486 0-2.303.61-2.787 1.301zM3.5 6H0v12h14V6H3.5zM7 9.551c-.877 0-1.587.731-1.587 1.633 0 .604.319 1.132.793 1.414v1.85h1.588v-1.85a1.64 1.64 0 00.793-1.414c0-.902-.71-1.633-1.587-1.633z" opacity=".3" fill-rule="evenodd" clip-rule="evenodd" fill="#fff"/></svg>